<svg width="700" height="220" viewBox="0 0 700 220" fill="none" xmlns="http://www.w3.org/2000/svg">
<rect width="700" height="220" fill="none"/>
<g transform="translate(20,20)">
  <rect x="40" y="70" rx="18" ry="18" width="130" height="100" fill="#0F2747"/>
  <rect x="58" y="90" width="24" height="24" fill="#1E88E5"/>
  <rect x="90" y="90" width="24" height="24" fill="#FF8C1A"/>
  <rect x="58" y="122" width="24" height="24" fill="#5DA9FF"/>
  <circle cx="165" cy="135" r="42" fill="#16345C" stroke="#0B1B30" stroke-width="4"/>
  <line x1="165" y1="135" x2="165" y2="110" stroke="white" stroke-width="5" stroke-linecap="round"/>
  <line x1="165" y1="135" x2="188" y2="150" stroke="#FF8C1A" stroke-width="5" stroke-linecap="round"/>
  <circle cx="165" cy="135" r="6" fill="white"/>
  <polygon points="30,40 110,10 190,40 110,68" fill="#0F2747"/>
  <polyline points="60,48 110,68 160,48" fill="none" stroke="white" stroke-width="5" stroke-linecap="round"/>
  <line x1="58" y1="40" x2="58" y2="78" stroke="#FF8C1A" stroke-width="5"/>
  <circle cx="58" cy="80" r="6" fill="#FF8C1A"/>
  <polygon points="50,88 66,88 62,110 54,110" fill="#FF8C1A"/>
</g>

<text x="250" y="135" font-family="Arial, Helvetica, sans-serif" font-size="82" font-weight="700" fill="#1E88E5">Uni</text>
<text x="405" y="135" font-family="Arial, Helvetica, sans-serif" font-size="82" font-weight="700" fill="#FF8C1A">Time</text>
</svg>
