<svg width="240" height="240" viewBox="0 0 240 240" fill="none" xmlns="http://www.w3.org/2000/svg">
<rect width="240" height="240" fill="none"/>
<rect x="40" y="90" rx="18" ry="18" width="130" height="100" fill="#0F2747"/>
<rect x="58" y="110" width="24" height="24" fill="#1E88E5"/>
<rect x="90" y="110" width="24" height="24" fill="#FF8C1A"/>
<rect x="58" y="142" width="24" height="24" fill="#5DA9FF"/>
<circle cx="165" cy="155" r="42" fill="#16345C" stroke="#0B1B30" stroke-width="4"/>
<line x1="165" y1="155" x2="165" y2="130" stroke="white" stroke-width="5" stroke-linecap="round"/>
<line x1="165" y1="155" x2="188" y2="170" stroke="#FF8C1A" stroke-width="5" stroke-linecap="round"/>
<circle cx="165" cy="155" r="6" fill="white"/>
<polygon points="30,60 110,30 190,60 110,88" fill="#0F2747"/>
<polyline points="60,68 110,88 160,68" fill="none" stroke="white" stroke-width="5" stroke-linecap="round"/>
<line x1="58" y1="60" x2="58" y2="98" stroke="#FF8C1A" stroke-width="5"/>
<circle cx="58" cy="100" r="6" fill="#FF8C1A"/>
<polygon points="50,108 66,108 62,130 54,130" fill="#FF8C1A"/>
</svg>
